HIERARCHY
ROOT Hips
{
	OFFSET -19.144548 87.740608 40.654285
	CHANNELS 6 Xposition Yposition Zposition Zrotation Yrotation Xrotation 
	JOINT Spine
	{
		OFFSET 0.000000 8.814246 -2.080107
		CHANNELS 3 Zrotation Yrotation Xrotation
		JOINT Spine1
		{
			OFFSET -0.000000 8.844141 0.000000
			CHANNELS 3 Zrotation Yrotation Xrotation
			JOINT Spine2
			{
				OFFSET -0.000000 11.682268 0.000000
				CHANNELS 3 Zrotation Yrotation Xrotation
				JOINT Spine3
				{
					OFFSET 0.000000 11.746700 -0.000000
					CHANNELS 3 Zrotation Yrotation Xrotation
					JOINT Neck
					{
						OFFSET -0.000000 17.658264 0.000000
						CHANNELS 3 Zrotation Yrotation Xrotation
						JOINT Neck1
						{
							OFFSET 0.000000 5.101515 0.000000
							CHANNELS 3 Zrotation Yrotation Xrotation
							JOINT Head
							{
								OFFSET 0.000000 5.101515 0.000000
								CHANNELS 3 Zrotation Yrotation Xrotation
								JOINT HeadEnd
								{
									OFFSET 0.000000 11.655085 0.000000
									CHANNELS 3 Zrotation Yrotation Xrotation
									End Site
									{
										OFFSET 0.000000 0.000000 0.000000
									}
								}
							}
						}
					}
					JOINT RightShoulder
					{
						OFFSET -2.625389 11.175210 0.000000
						CHANNELS 3 Zrotation Yrotation Xrotation
						JOINT RightArm
						{
							OFFSET -0.000000 10.434715 -0.000000
							CHANNELS 3 Zrotation Yrotation Xrotation
							JOINT RightForeArm
							{
								OFFSET -0.000000 29.628420 -0.000000
								CHANNELS 3 Zrotation Yrotation Xrotation
								JOINT RightHand
								{
									OFFSET 0.000000 22.857611 0.000000
									CHANNELS 3 Zrotation Yrotation Xrotation
									JOINT RightHandThumb1
									{
										OFFSET -2.867323 3.959563 2.944291
										CHANNELS 3 Zrotation Yrotation Xrotation
										JOINT RightHandThumb2
										{
											OFFSET -0.000000 3.350399 -0.000000
											CHANNELS 3 Zrotation Yrotation Xrotation
											JOINT RightHandThumb3
											{
												OFFSET -0.000000 3.756509 -0.000000
												CHANNELS 3 Zrotation Yrotation Xrotation
												JOINT RightHandThumb4
												{
													OFFSET 0.000000 3.147345 -0.000000
													CHANNELS 3 Zrotation Yrotation Xrotation
													End Site
													{
														OFFSET 0.000000 0.000000 0.000000
													}
												}
											}
										}
									}
									JOINT RightHandIndex1
									{
										OFFSET -0.086752 10.030893 2.345280
										CHANNELS 3 Zrotation Yrotation Xrotation
										JOINT RightHandIndex2
										{
											OFFSET -0.000000 4.061090 0.000000
											CHANNELS 3 Zrotation Yrotation Xrotation
											JOINT RightHandIndex3
											{
												OFFSET -0.000000 3.248873 -0.000000
												CHANNELS 3 Zrotation Yrotation Xrotation
												JOINT RightHandIndex4
												{
													OFFSET 0.000000 2.639709 0.000000
													CHANNELS 3 Zrotation Yrotation Xrotation
													End Site
													{
														OFFSET 0.000000 0.000000 0.000000
													}
												}
											}
										}
									}
									JOINT RightHandMiddle1
									{
										OFFSET 0.104102 9.502952 0.006768
										CHANNELS 3 Zrotation Yrotation Xrotation
										JOINT RightHandMiddle2
										{
											OFFSET -0.000000 4.568727 0.000000
											CHANNELS 3 Zrotation Yrotation Xrotation
											JOINT RightHandMiddle3
											{
												OFFSET 0.000000 3.654981 0.000000
												CHANNELS 3 Zrotation Yrotation Xrotation
												JOINT RightHandMiddle4
												{
													OFFSET 0.000000 2.741236 -0.000000
													CHANNELS 3 Zrotation Yrotation Xrotation
													End Site
													{
														OFFSET 0.000000 0.000000 0.000000
													}
												}
											}
										}
									}
									JOINT RightHandRing1
									{
										OFFSET 0.086752 8.921708 -2.267442
										CHANNELS 3 Zrotation Yrotation Xrotation
										JOINT RightHandRing2
										{
											OFFSET 0.000000 4.061090 0.000000
											CHANNELS 3 Zrotation Yrotation Xrotation
											JOINT RightHandRing3
											{
												OFFSET 0.000000 3.654981 0.000000
												CHANNELS 3 Zrotation Yrotation Xrotation
												JOINT RightHandRing4
												{
													OFFSET -0.000000 2.741236 -0.000000
													CHANNELS 3 Zrotation Yrotation Xrotation
													End Site
													{
														OFFSET 0.000000 0.000000 0.000000
													}
												}
											}
										}
									}
									JOINT RightHandPinky1
									{
										OFFSET -0.173504 7.976997 -4.467199
										CHANNELS 3 Zrotation Yrotation Xrotation
										JOINT RightHandPinky2
										{
											OFFSET -0.000000 3.350399 -0.000000
											CHANNELS 3 Zrotation Yrotation Xrotation
											JOINT RightHandPinky3
											{
												OFFSET 0.000000 2.842763 -0.000000
												CHANNELS 3 Zrotation Yrotation Xrotation
												JOINT RightHandPinky4
												{
													OFFSET 0.000000 2.639709 0.000000
													CHANNELS 3 Zrotation Yrotation Xrotation
													End Site
													{
														OFFSET 0.000000 0.000000 0.000000
													}
												}
											}
										}
									}
									JOINT RightForeArmEnd
									{
										OFFSET 0.000000 0.000000 0.000000
										CHANNELS 3 Zrotation Yrotation Xrotation
										End Site
										{
											OFFSET 0.000000 0.000000 0.000000
										}
									}
								}
								JOINT RightArmEnd
								{
									OFFSET 0.000000 0.000000 0.000000
									CHANNELS 3 Zrotation Yrotation Xrotation
									End Site
									{
										OFFSET 0.000000 0.000000 0.000000
									}
								}
							}
						}
					}
					JOINT LeftShoulder
					{
						OFFSET 2.625389 11.175210 -0.000000
						CHANNELS 3 Zrotation Yrotation Xrotation
						JOINT LeftArm
						{
							OFFSET -0.000000 10.813635 -0.000000
							CHANNELS 3 Zrotation Yrotation Xrotation
							JOINT LeftForeArm
							{
								OFFSET -0.000000 28.724781 0.000000
								CHANNELS 3 Zrotation Yrotation Xrotation
								JOINT LeftHand
								{
									OFFSET 0.644384 25.716167 -0.328871
									CHANNELS 3 Zrotation Yrotation Xrotation
									JOINT LeftHandThumb1
									{
										OFFSET 2.867323 3.959563 2.944291
										CHANNELS 3 Zrotation Yrotation Xrotation
										JOINT LeftHandThumb2
										{
											OFFSET 0.000000 3.350399 -0.000000
											CHANNELS 3 Zrotation Yrotation Xrotation
											JOINT LeftHandThumb3
											{
												OFFSET 0.000000 3.756509 0.000000
												CHANNELS 3 Zrotation Yrotation Xrotation
												JOINT LeftHandThumb4
												{
													OFFSET 0.000000 3.100000 -0.000000
													CHANNELS 3 Zrotation Yrotation Xrotation
													End Site
													{
														OFFSET 0.000000 0.000000 0.000000
													}
												}
											}
										}
									}
									JOINT LeftHandIndex1
									{
										OFFSET 0.086752 10.030893 2.345280
										CHANNELS 3 Zrotation Yrotation Xrotation
										JOINT LeftHandIndex2
										{
											OFFSET 0.000000 4.061090 -0.000000
											CHANNELS 3 Zrotation Yrotation Xrotation
											JOINT LeftHandIndex3
											{
												OFFSET -0.000000 3.248873 0.000000
												CHANNELS 3 Zrotation Yrotation Xrotation
												JOINT LeftHandIndex4
												{
													OFFSET 0.000000 2.639709 -0.000000
													CHANNELS 3 Zrotation Yrotation Xrotation
													End Site
													{
														OFFSET 0.000000 0.000000 0.000000
													}
												}
											}
										}
									}
									JOINT LeftHandMiddle1
									{
										OFFSET -0.104102 9.502952 0.006768
										CHANNELS 3 Zrotation Yrotation Xrotation
										JOINT LeftHandMiddle2
										{
											OFFSET 0.000000 4.568727 -0.000000
											CHANNELS 3 Zrotation Yrotation Xrotation
											JOINT LeftHandMiddle3
											{
												OFFSET -0.000000 3.654981 0.000000
												CHANNELS 3 Zrotation Yrotation Xrotation
												JOINT LeftHandMiddle4
												{
													OFFSET -0.000000 2.741236 -0.000000
													CHANNELS 3 Zrotation Yrotation Xrotation
													End Site
													{
														OFFSET 0.000000 0.000000 0.000000
													}
												}
											}
										}
									}
									JOINT LeftHandRing1
									{
										OFFSET -0.086752 8.921708 -2.267442
										CHANNELS 3 Zrotation Yrotation Xrotation
										JOINT LeftHandRing2
										{
											OFFSET 0.000000 4.061090 -0.000000
											CHANNELS 3 Zrotation Yrotation Xrotation
											JOINT LeftHandRing3
											{
												OFFSET -0.000000 3.654981 0.000000
												CHANNELS 3 Zrotation Yrotation Xrotation
												JOINT LeftHandRing4
												{
													OFFSET 0.000000 2.741236 0.000000
													CHANNELS 3 Zrotation Yrotation Xrotation
													End Site
													{
														OFFSET 0.000000 0.000000 0.000000
													}
												}
											}
										}
									}
									JOINT LeftHandPinky1
									{
										OFFSET 0.173504 7.976997 -4.467199
										CHANNELS 3 Zrotation Yrotation Xrotation
										JOINT LeftHandPinky2
										{
											OFFSET -0.000000 3.350399 -0.000000
											CHANNELS 3 Zrotation Yrotation Xrotation
											JOINT LeftHandPinky3
											{
												OFFSET -0.000000 2.842763 0.000000
												CHANNELS 3 Zrotation Yrotation Xrotation
												JOINT LeftHandPinky4
												{
													OFFSET -0.000000 2.639709 0.000000
													CHANNELS 3 Zrotation Yrotation Xrotation
													End Site
													{
														OFFSET 0.000000 0.000000 0.000000
													}
												}
											}
										}
									}
									JOINT LeftForeArmEnd
									{
										OFFSET 0.000000 0.000000 0.000000
										CHANNELS 3 Zrotation Yrotation Xrotation
										End Site
										{
											OFFSET 0.000000 0.000000 0.000000
										}
									}
								}
								JOINT LeftArmEnd
								{
									OFFSET 0.000000 0.000000 0.000000
									CHANNELS 3 Zrotation Yrotation Xrotation
									End Site
									{
										OFFSET 0.000000 0.000000 0.000000
									}
								}
							}
						}
					}
				}
			}
		}
	}
	JOINT RightUpLeg
	{
		OFFSET -11.289943 -0.000000 -0.000000
		CHANNELS 3 Zrotation Yrotation Xrotation
		JOINT RightLeg
		{
			OFFSET 0.000000 -38.200325 -0.000000
			CHANNELS 3 Zrotation Yrotation Xrotation
			JOINT RightFoot
			{
				OFFSET -0.000000 -39.900856 -0.000000
				CHANNELS 3 Zrotation Yrotation Xrotation
				JOINT RightToeBase
				{
					OFFSET -0.000000 -0.000000 15.261641
					CHANNELS 3 Zrotation Yrotation Xrotation
					JOINT RightToeBaseEnd
					{
						OFFSET -0.000000 0.000000 7.370709
						CHANNELS 3 Zrotation Yrotation Xrotation
						End Site
						{
							OFFSET 0.000000 0.000000 0.000000
						}
					}
				}
				JOINT RightLegEnd
				{
					OFFSET 0.000000 0.000000 0.000000
					CHANNELS 3 Zrotation Yrotation Xrotation
					End Site
					{
						OFFSET 0.000000 0.000000 0.000000
					}
				}
			}
			JOINT RightUpLegEnd
			{
				OFFSET 0.000000 0.000000 0.000000
				CHANNELS 3 Zrotation Yrotation Xrotation
				End Site
				{
					OFFSET 0.000000 0.000000 0.000000
				}
			}
		}
	}
	JOINT LeftUpLeg
	{
		OFFSET 11.315661 0.000000 0.000000
		CHANNELS 3 Zrotation Yrotation Xrotation
		JOINT LeftLeg
		{
			OFFSET 0.000000 -38.200325 0.000000
			CHANNELS 3 Zrotation Yrotation Xrotation
			JOINT LeftFoot
			{
				OFFSET 0.000000 -39.900856 -0.000000
				CHANNELS 3 Zrotation Yrotation Xrotation
				JOINT LeftToeBase
				{
					OFFSET 0.000000 0.000000 15.261641
					CHANNELS 3 Zrotation Yrotation Xrotation
					JOINT LeftToeBaseEnd
					{
						OFFSET -0.000000 0.000000 7.539996
						CHANNELS 3 Zrotation Yrotation Xrotation
						End Site
						{
							OFFSET 0.000000 0.000000 0.000000
						}
					}
				}
				JOINT LeftLegEnd
				{
					OFFSET 0.000000 0.000000 0.000000
					CHANNELS 3 Zrotation Yrotation Xrotation
					End Site
					{
						OFFSET 0.000000 0.000000 0.000000
					}
				}
			}
			JOINT LeftUpLegEnd
			{
				OFFSET 0.000000 0.000000 0.000000
				CHANNELS 3 Zrotation Yrotation Xrotation
				End Site
				{
					OFFSET 0.000000 0.000000 0.000000
				}
			}
		}
	}
}
MOTION
Frames: 4
Frame Time: 0.016667
0.000000 86.549622 0.000000 1.164838 -0.062041 6.079542 7.403628 -2.498810 14.948252 -19.430542 -1.423140 -40.133945 11.037301 -7.291692 26.568457 -5.457827 0.003460 -6.006047 8.580623 0.164951 5.705922 -2.810290 0.880533 -10.076478 1.343302 3.953086 -22.265032 -0.000000 0.000000 0.000000 97.219414 -0.957073 7.540582 73.739738 -80.596527 -21.452263 0.463712 -0.121270 31.964956 9.365611 -15.745979 -18.558598 15.136321 -2.071817 37.965195 0.000000 0.000000 -36.720001 -0.000000 0.000000 -25.500000 0.000000 0.000000 -0.000000 37.121433 -0.000000 -9.782469 25.985004 0.000000 0.000000 25.985004 -0.000000 -0.000000 0.000000 0.000000 -0.000000 37.326508 -0.000000 -10.135261 26.128555 0.000000 -0.000000 26.128555 -0.000000 0.000000 -0.000000 0.000000 -0.000000 39.268322 -0.000000 -8.307761 27.487823 0.000000 -0.000000 27.487823 -0.000000 0.000000 0.000000 0.000000 -0.000000 39.373569 -0.000000 -7.674799 27.561499 0.000000 0.000000 27.561499 -0.000000 -0.000000 0.000000 0.000000 -0.000000 0.000000 -0.000000 -0.000000 0.000000 0.000000 -0.000000 -93.895264 0.448793 6.287585 -48.873482 68.242149 -3.877066 0.931042 4.968118 47.911598 -0.271645 15.286934 -19.553509 -15.436551 2.076864 37.844463 0.000000 0.000000 -37.439999 0.000000 0.000000 -26.000000 0.000000 0.000000 0.000000 -41.962914 0.000000 -19.467258 -29.374039 -0.000000 -0.000000 -29.374039 0.000000 -0.000000 0.000000 -0.000000 0.000000 -44.513229 0.000000 -17.618473 -31.159260 -0.000000 -0.000000 -31.159260 0.000000 -0.000000 -0.000000 -0.000000 -0.000000 -54.597832 0.000000 -8.733865 -38.218483 -0.000000 -0.000000 -38.218483 -0.000000 0.000000 0.000000 0.000000 -0.000000 -62.583191 0.000000 3.648719 -43.808235 -0.000000 0.000000 -43.808235 -0.000000 -0.000000 0.000000 -0.000000 0.000000 -0.000000 0.000000 0.000000 -0.000000 -0.000000 -0.000000 -11.632170 14.445280 -6.786337 -0.194420 -1.053916 10.452356 0.353460 5.962474 13.204624 0.558029 -0.363800 -32.785847 -0.000000 -0.000000 -0.000000 -0.000000 -0.000000 0.000000 0.000000 0.000000 0.000000 11.089879 -16.987253 -9.687822 0.251679 1.021088 13.847128 -1.310844 -11.000990 14.649602 -0.323069 -0.060858 -30.027611 0.000000 0.000000 -0.000000 -0.000000 -0.000000 0.000000 0.000000 0.000000 -0.000000 
-0.793064 86.646362 -0.089665 1.039415 0.049225 6.172798 7.465031 -2.468392 15.016571 -18.629915 -1.430837 -40.163822 10.240587 -6.859463 26.888990 -5.319643 -0.132288 -6.059422 8.852066 0.237686 5.417766 -2.815152 0.998371 -10.191563 1.354695 4.089414 -22.294994 -0.000000 0.000000 0.000000 97.395966 -1.004147 7.679420 62.087090 -80.687004 -10.793117 0.468385 0.351632 32.131027 9.669269 -15.639806 -18.741131 15.136321 -2.071817 37.965195 -0.000000 -0.000000 -36.720001 0.000000 0.000000 -25.500000 -0.000000 0.000000 0.000000 37.317184 0.000000 -9.875732 26.122028 0.000000 -0.000000 26.122028 0.000000 0.000000 0.000000 0.000000 -0.000000 37.411430 0.000000 -10.316154 26.188000 -0.000000 -0.000000 26.188000 0.000000 -0.000000 -0.000000 -0.000000 0.000000 39.087402 0.000000 -8.627005 27.361181 0.000000 -0.000000 27.361181 -0.000000 0.000000 0.000000 0.000000 -0.000000 38.947918 0.000000 -8.124313 27.263542 0.000000 -0.000000 27.263542 -0.000000 -0.000000 0.000000 -0.000000 -0.000000 0.000000 0.000000 -0.000000 0.000000 0.000000 -0.000000 -93.922600 0.440818 6.235864 -52.722710 68.395927 -8.389761 0.924115 5.266167 47.618805 -1.885621 14.948639 -21.249210 -15.436551 2.076864 37.844463 -0.000000 0.000000 -37.439999 0.000000 -0.000000 -26.000000 0.000000 0.000000 0.000000 -42.478092 0.000000 -19.528666 -29.734665 -0.000000 -0.000000 -29.734665 0.000000 -0.000000 -0.000000 -0.000000 -0.000000 -44.966911 0.000000 -17.690186 -31.476837 0.000000 0.000000 -31.476837 -0.000000 0.000000 -0.000000 0.000000 -0.000000 -54.964355 0.000000 -8.612860 -38.475048 -0.000000 0.000000 -38.475048 0.000000 -0.000000 0.000000 -0.000000 0.000000 -62.906681 0.000000 4.156070 -44.034679 0.000000 0.000000 -44.034679 -0.000000 0.000000 0.000000 0.000000 -0.000000 -0.000000 -0.000000 0.000000 -0.000000 -0.000000 -0.000000 -10.962216 14.915195 -7.082822 -0.193374 -1.028152 10.757771 -0.144534 5.346877 13.245755 0.600264 -0.368023 -32.956104 -0.000000 -0.000000 -0.000000 -0.000000 -0.000000 -0.000000 -0.000000 0.000000 0.000000 11.795269 -16.636778 -10.128652 0.269271 1.064981 14.190293 -1.810720 -11.376781 15.440182 -0.346054 0.002226 -30.561981 -0.000000 0.000000 -0.000000 -0.000000 0.000000 -0.000000 0.000000 -0.000000 -0.000000 
-1.557833 86.748428 -0.170965 0.954968 0.259116 6.155407 7.497431 -2.406698 14.910896 -17.907711 -1.377200 -39.862637 9.563179 -6.492239 27.158655 -5.195507 -0.241632 -6.019981 9.080194 0.250439 5.146197 -2.831006 1.065233 -10.353930 1.365697 4.195254 -22.333975 0.000000 0.000000 0.000000 97.536598 -1.045129 7.794815 51.123394 -79.794655 -0.731410 0.563653 1.039738 32.302132 10.085710 -16.244516 -19.089376 15.136321 -2.071817 37.965195 -0.000000 0.000000 -36.720001 -0.000000 -0.000000 -25.500000 0.000000 0.000000 -0.000000 37.264042 0.000000 -9.695147 26.084829 0.000000 0.000000 26.084829 -0.000000 -0.000000 0.000000 0.000000 0.000000 37.333752 0.000000 -10.164509 26.133627 0.000000 -0.000000 26.133627 0.000000 -0.000000 0.000000 0.000000 -0.000000 38.930218 0.000000 -8.523474 27.251152 0.000000 0.000000 27.251152 -0.000000 -0.000000 -0.000000 0.000000 -0.000000 38.726761 0.000000 -8.113588 27.108732 0.000000 -0.000000 27.108732 0.000000 -0.000000 0.000000 -0.000000 -0.000000 0.000000 0.000000 -0.000000 0.000000 0.000000 -0.000000 -93.847176 0.426142 6.244197 -56.470394 68.451881 -12.467859 0.955646 5.546863 47.304070 -3.632232 14.967426 -22.968822 -15.736781 2.080660 37.724583 -0.000000 0.000000 -38.160000 -0.000000 -0.000000 -26.500000 -0.000000 -0.000000 -0.000000 -43.419476 0.000000 -19.597347 -30.393633 -0.000000 -0.000000 -30.393633 -0.000000 -0.000000 0.000000 0.000000 -0.000000 -45.874859 0.000000 -17.707045 -32.112400 0.000000 0.000000 -32.112400 0.000000 0.000000 -0.000000 0.000000 -0.000000 -55.882603 0.000000 -8.346738 -39.117821 0.000000 0.000000 -39.117821 0.000000 0.000000 -0.000000 0.000000 -0.000000 -63.819130 0.000000 4.797904 -44.673393 -0.000000 -0.000000 -44.673393 -0.000000 -0.000000 -0.000000 -0.000000 0.000000 -0.000000 0.000000 0.000000 -0.000000 -0.000000 -0.000000 -10.311323 15.543902 -7.133106 -0.192445 -1.011759 10.873079 -0.598348 4.503863 13.369217 0.637623 -0.380207 -33.113983 -0.000000 -0.000000 -0.000000 -0.000000 -0.000000 0.000000 0.000000 0.000000 0.000000 12.414835 -16.276020 -10.505141 0.285025 1.098150 14.551299 -2.283734 -11.864752 16.327808 -0.388418 0.069466 -31.149204 0.000000 0.000000 -0.000000 -0.000000 0.000000 -0.000000 0.000000 0.000000 0.000000 
-2.287394 86.848259 -0.232147 0.931809 0.558702 6.073756 7.470252 -2.335619 14.788165 -17.091311 -1.283364 -39.343807 8.788650 -6.075797 27.202179 -5.046150 -0.356565 -5.998508 9.328110 0.205747 4.978117 -2.849400 1.117611 -10.472196 1.376558 4.281939 -22.323355 -0.000000 0.000000 0.000000 97.640579 -1.073434 7.849932 43.075195 -78.431587 6.627080 0.633971 1.654610 32.443928 10.334966 -17.011566 -19.482519 15.136321 -2.071817 37.965195 0.000000 0.000000 -36.720001 -0.000000 -0.000000 -25.500000 0.000000 0.000000 0.000000 36.913055 0.000000 -9.570011 25.839138 -0.000000 -0.000000 25.839138 -0.000000 -0.000000 -0.000000 -0.000000 0.000000 37.055088 -0.000000 -9.958398 25.938562 0.000000 0.000000 25.938562 0.000000 -0.000000 0.000000 0.000000 0.000000 38.806332 -0.000000 -8.202495 27.164433 -0.000000 0.000000 27.164433 0.000000 -0.000000 -0.000000 0.000000 -0.000000 38.767796 -0.000000 -7.788525 27.137457 -0.000000 -0.000000 27.137457 0.000000 0.000000 -0.000000 0.000000 0.000000 0.000000 -0.000000 -0.000000 0.000000 0.000000 -0.000000 -93.677048 0.406532 6.337331 -60.681767 68.278046 -16.769535 1.026656 5.945404 47.026524 -5.126875 14.667798 -24.554436 -16.037004 2.083213 37.605560 -0.000000 -0.000000 -38.880001 -0.000000 -0.000000 -27.000000 -0.000000 0.000000 -0.000000 -44.578583 -0.000000 -19.544342 -31.205008 -0.000000 -0.000000 -31.205008 0.000000 0.000000 0.000000 0.000000 -0.000000 -46.957729 -0.000000 -17.529282 -32.870411 0.000000 0.000000 -32.870411 -0.000000 -0.000000 -0.000000 0.000000 -0.000000 -56.866241 -0.000000 -7.764997 -39.806370 0.000000 0.000000 -39.806370 -0.000000 0.000000 0.000000 0.000000 -0.000000 -64.635605 -0.000000 5.993213 -45.244923 -0.000000 -0.000000 -45.244923 0.000000 0.000000 -0.000000 -0.000000 0.000000 -0.000000 0.000000 0.000000 -0.000000 -0.000000 -0.000000 -9.707105 16.104692 -7.065138 -0.191580 -0.996064 10.969006 -1.032856 3.645555 13.483057 0.663758 -0.397371 -33.283836 -0.000000 -0.000000 -0.000000 -0.000000 -0.000000 0.000000 0.000000 0.000000 0.000000 12.937094 -15.962904 -10.847886 0.298843 1.121982 14.915874 -2.730717 -12.389326 17.287552 -0.442728 0.141426 -31.762835 0.000000 0.000000 -0.000000 -0.000000 0.000000 -0.000000 0.000000 -0.000000 0.000000 
